<?xml version="1.0" encoding="UTF-8"?><svg id="uuid-e6c4a5d5-1a4e-481c-92c4-70a1c8c0a720" xmlns="http://www.w3.org/2000/svg" viewBox="0 0 512 512"><rect x="3.64" y="3.64" width="504.71" height="504.71" rx="252.36" ry="252.36" fill="#cb4d21"/><path d="M237.28,210.42c-.08-1.61-1.24-2.21-2.71-2.14-1.14.05-2.4.45-3.09,1.45-.42.61-.33,1.74-.12,2.73,0,0,0,0,0,.01.01.06.03.11.05.17.01.04.02.08.04.12s.03.08.05.11c.01.03.03.06.04.09,0,.01,0,.02.01.03,0,0,0,.02.02.03.01.03.03.06.05.09,0,.01.01.02.02.04.45.72,1.28,1.12,2.14,1.06.05,0,.1,0,.14,0,.16-.01.3-.03.45-.04.02,0,.04,0,.06,0,.06,0,.12-.01.17-.02.06,0,.13-.02.19-.03.04,0,.08-.01.12-.02.03,0,.06-.01.09-.02.05,0,.1-.02.15-.03.03,0,.06-.02.09-.02.16-.04.32-.1.47-.16.03-.01.07-.03.1-.04.03-.01.06-.03.09-.04.13-.07.26-.15.38-.24.03-.02.05-.04.08-.06.03-.02.06-.05.09-.07.62-.52.89-1.91.84-2.94ZM237.28,210.42c-.08-1.61-1.24-2.21-2.71-2.14-1.14.05-2.4.45-3.09,1.45-.42.61-.33,1.74-.12,2.73,0,0,0,0,0,.01.01.06.03.11.05.17.01.04.02.08.04.12s.03.08.05.11c.01.03.03.06.04.09,0,.01,0,.02.01.03,0,0,0,.02.02.03.01.03.03.06.05.09,0,.01.01.02.02.04.45.72,1.28,1.12,2.14,1.06.05,0,.1,0,.14,0,.16-.01.3-.03.45-.04.02,0,.04,0,.06,0,.06,0,.12-.01.17-.02.06,0,.13-.02.19-.03.04,0,.08-.01.12-.02.03,0,.06-.01.09-.02.05,0,.1-.02.15-.03.03,0,.06-.02.09-.02.16-.04.32-.1.47-.16.03-.01.07-.03.1-.04.03-.01.06-.03.09-.04.13-.07.26-.15.38-.24.03-.02.05-.04.08-.06.03-.02.06-.05.09-.07.62-.52.89-1.91.84-2.94ZM423.77,358.02c-.08-.52-.53-.89-.98-1.15-.94-.55-1.93-.82-3.01-.82h-10.92c-2.25,0-4.49,0-6.74,0h-7.28c-2.43,0-4.86,0-7.29,0h-6.76c-1.9,0-3.79,0-5.69,0h-6.09c.07-.94.23-2.01.16-2.79l-1.37-14.16-2-17.03c-1.58-13.42-3.8-26.46-8.1-39.27-12.3-36.61-38.08-62.77-77.29-68.4-.23-.03-.34-.31-.19-.49,1.27-1.58,2.31-2.95,3.34-4.62.28-.46.83-.67,1.35-.54,16.04,4.03,35.74-1.87,43.76-17.1,6.73-12.77,1.59-26.88-10.35-34.57-.56-.36-.69-1.13-.28-1.66,7.07-9.14,7.86-22,2.9-32.32-6.41-13.35-20.52-21.19-35.29-19.73-7.21.72-13.47,3.72-18.82,8.74-.37.35-.99.1-1.01-.42-.3-6.38-2.94-11.92-7.55-16.18-9.53-8.81-24.1-10.15-34.97-3.18-5.94,4.05-9.54,9.99-9.57,17.33,0,.57-.64.91-1.11.58-5.29-3.65-11.37-4.7-17.51-2.93-8.85,2.55-15.47,9.42-18.66,18.04-2.56,7.14-2.66,14.09.27,21.06.25.59-.1,1.25-.73,1.37-14.15,2.93-23.25,17.64-21.23,31.32,1.81,12.44,12.08,21.44,24.69,21.45,6.32,0,12.17-2.13,17.19-6.08.57-.45,1.41-.25,1.72.41,3.75,7.81,11.57,12.35,20.27,11.54.18-.02.33.12.33.29l.28,11.64c0,.16-.11.29-.27.31-15.87,1.65-30.54,11.57-41.1,22.74-26.09,27.58-40.42,70.09-39.65,107.67,0,.12-.06.23-.17.28-2.01.99-3.61,1.88-5.14,3.33-.13.13-.21.3-.21.49l-.05,2.89c0,.16-.14.3-.3.3l-39.7.39c-1.33.01-3.25.2-4.25.45-.31.08-.23,1.26.09,1.32.25.05.95.37,1.48.38l42.39.49c.17,0,.3.14.3.3v5.84c0,.14.09.26.22.29,1.62.46,3.02.6,5.03.73.19.01.32.2.27.38-.68,2.62-.88,5.24-.06,8.09.81,2.8,3.6,5.58,6.78,5.49,3.72-.11,6.26-3.89,6.31-7.23,0-.16.12-.29.27-.3,1.19-.12,2.63-.27,2.97-.99.75-1.57.09-3.03-.59-4.58-.08-.19.04-.4.25-.42l2.61-.25c.15-.01.27-.14.27-.29l.24-6.65c0-.16.14-.29.3-.29l49.93.14,134.55.09c.17,0,.31.14.3.31l-.17,5.76c0,.16.11.29.27.31l3.75.4h0c.24.03.36.31.2.5-.78.94-2.21,3.2-1.41,4.56,1.34,2.3,3.41.17,2.92,2.86-.57,3.16,1.67,6.36,5.14,6.57,2.79.17,5.17-.59,6.74-3.13,1.55-2.51,2.25-7.18,1.2-10.66-.06-.19.08-.38.28-.39l4-.17c.14,0,.27-.11.29-.26.32-2.08.42-3.89.43-6.33,0-.17.14-.31.3-.31.3,0,.6,0,.9,0,1.11,0,2.21,0,3.31,0,1.66,0,3.32,0,4.98,0,2.06,0,4.13,0,6.2,0,2.32,0,4.65,0,6.97,0,2.43,0,4.87,0,7.3,0,2.4,0,4.79,0,7.19,0,2.21,0,4.42,0,6.63,0,1.88,0,3.75,0,5.63,0,1.39,0,2.79,0,4.18,0,.75,0,1.54.07,2.29,0,.48-.05,1.03-.22,1.41-.53.35-.28.58-.73.51-1.17ZM276.88,213.96l-2.94-.21c-.14,0-.26-.12-.28-.26-.13-.9-.23-1.75-.26-2.48,0-.08.03-.17.09-.23l3.88-3.9c1.26-1.27,4.26-2.35,4.74-1.01.48,1.36-3.75,6.34-4.96,7.96-.06.08-.16.13-.26.12ZM272.41,206.68l-.55-2.48c-.15-.7.62-1.23,1.22-.84l1.76,1.16c.41.27.48.85.15,1.21l-1.22,1.32c-.44.47-1.23.26-1.37-.37ZM214.69,203.76c-8.22-.93-14.76-7.05-16.19-15.17-.06-.33-.61-1.03-.89-.95-1.27.35.3,1.76-1.79,3.53-3.79,3.2-8,5.4-12.88,6.18-13.44,2.15-25.09-7.86-25.19-21.48-.09-11.82,7.83-22.18,19.17-25.8.85-.27,1.61-.57,2.39-.92.86-.38,1.27-1.37.93-2.25-.52-1.36-1.05-2.59-1.46-4.11-3.23-12.09,2.65-25.3,13.78-30.95,7.17-3.64,15.12-2.9,21.59,1.63.46.23,1.42-.81,1.42-1.34-.07-8.24,4.63-15.41,12.2-18.88,9.84-4.52,21.87-2.29,29.22,5.65,1.19,1.28,2.22,2.71,3.05,4.25s1.39,3.08,1.76,4.72.51,3.33.43,5.01c-.04.84-.14,1.67-.28,2.49-.07.42-.16.83-.26,1.24s-.31.88-.25,1.29c.06.48.82.71,1.2.85.44.17.98.33,1.45.21.88-.23.83-2.15,1.3-2.73,1.86-2.28,4.07-4.12,6.53-5.62,15.97-9.78,36.83-4.03,45.41,12.55,5.16,9.96,4.23,21.68-2.41,30.7-.74,1.01-1.97,3.46-.14,4.54,4.01,2.38,7.39,5.25,9.97,9.14,4.68,7.06,4.98,15.8.73,23.2-7.86,13.7-26.05,18.9-40.84,15.11-.1-.03-.19-.11-.22-.21-.31-1.02-.72-2.01-1.4-2.42-.82-.5-2.03-.6-2.97-.38l-2.28.54c-.07.02-.14,0-.21-.02-5.68-2.84-10.19-6.62-13-12.02-.67-1.29-.9-2.76-.7-4.2.05-.37.09-.75.11-1.14.03-.65-2.22-1.09-2.45-.48-.9,2.71-1.82,5.21-3.99,7.22-5.74,5.31-13.77,7.78-21.45,6.17-5.9-1.23-6.35-4.92-7.93-4.91-.31,0-.13.91-.26,1.37-1.49,5.53-7.24,9.06-13.18,8.39ZM152.47,370.71c-.11.39-1.07-.13-1.62-.64-.52-.47-2.06.25-2.47.8-.52.69-.23,1.9-.13,2.96.15,1.6-1.45,3.79-3.14,4.14-1.39.28-3.35-1.14-3.91-2.34-1.33-2.88-1.62-5.81-1.06-8.78.03-.15.16-.25.31-.25l11.03.26c.09,0,.18.04.23.12.73.96,1.15,2.37.75,3.73ZM154.6,363.99l-19.03.82c-.17,0-.31-.13-.32-.3l-.07-7.14-.04-4.02c0-.11.06-.22.16-.27,6.25-3.27,13.76-3.02,19.46,1.1.08.06.13.15.13.25v9.26c0,.16-.13.3-.29.3ZM160.61,349.04c-.63-2.75.63-5.66,3.37-6.86,1.53-.68,3.23-.73,4.95-.57.17.02.29.17.27.34-.53,3.88-.77,7.57-2.46,11.05-.04.08-.11.14-.19.16-2.47.72-5.38-1.67-5.94-4.11ZM168.62,356.2c-.26,0-.4-.3-.23-.5.68-.83,1.16-1.36,1.34-1.96l1.44-4.79c.03-.1.11-.18.21-.21,7.9-2.25,16.38-1.58,23.69,1.91,2.29,1.1,4.32,2.6,5.14,5.08.06.2-.08.4-.29.4l-31.3.05ZM357.99,375.77c-1.17,2.4-4.5,3.67-6.71,1.52-1.91-1.85.99-5.75-1.51-7.21-.07-.04-.15-.05-.23-.03l-2.21.57c-.17.04-.34-.06-.37-.23-.32-1.49,1.1-3.45,2.77-3.63,2.88-.31,5.85-.11,8.86-.08.14,0,.26.1.29.23,1.04,4.21,1.15,4.63-.89,8.84ZM363.2,364.4l-18.5.39c-.18,0-.32-.15-.31-.32.09-1.22.06-5.44.05-5.89-.02-1.04-.05-2.08-.1-3.12-.02-.46-.11-.94-.02-1.38.1-.46.22-.93.43-1.35.56-1.11,1.57-1.27,2.7-1.47,1.21-.21,2.43-.37,3.66-.45,2.07-.14,4.14-.08,6.2.19,1.04.13,2.07.32,3.09.56.52.12,1.03.25,1.54.4.15.04,1.48.35,1.48.46.28,3.88.24,7.68.07,11.71,0,.16-.14.29-.3.29ZM284.4,218.48s.02,0,.02,0l9.44,2.58c2.21.6,4.41.93,6.63,1.77,11.47,4.35,21.56,11.24,30.12,20.05,16.28,16.75,24.8,38.52,29.31,61.1.98,4.88,1.53,9.41,1.99,14.38.41,4.4,1.15,8.66,1.72,13.03l.61,4.62c.15,1.17.32,2.33.49,3.49.41,2.78.84,5.55,1.18,8.34.17,1.4.32,2.8.42,4.2.1,1.3.23,2.64.2,3.95,0,.14-.11.26-.25.29-.09.02-.19.04-.26.02-.16-.04-.31-.16-.4-.31-.16-.27-.16-.6-.15-.91,0-.09,0-.17,0-.26.01-.73.02-1.46.03-2.18,0-.36.01-.73.02-1.09,0-.31-.08-.43-.3-.65-.76-.78-1.85-1.31-2.89-1.6-2.71-.76-5.53-1.14-8.35-1.11-1.63.02-3.27.16-4.88.43-1.97.33-4.01,1.16-5.4,2.64-.5.53-.92,1.13-1.23,1.79-.17.35-.23.63-.26,1.02-.03.43-.03.86-.03,1.29,0,.27.13.64-.16.71-.07.02-.18,0-.26,0-.32,0-.64,0-.95,0-.5,0-1,0-1.5,0-.67,0-1.33,0-2,0-.83,0-1.65,0-2.48,0-.97,0-1.95,0-2.92,0-1.11,0-2.22,0-3.33,0-1.24,0-2.47,0-3.71,0h-4.05c-1.45,0-2.91,0-4.36,0h-4.64c-1.63,0-3.25,0-4.88,0-1.7,0-3.39,0-5.09,0-1.76,0-3.52,0-5.27,0-1.81,0-3.61,0-5.42,0h-5.53c-1.87,0-3.74,0-5.61,0-1.89,0-3.77,0-5.66,0-1.89,0-3.78,0-5.67,0-1.89,0-3.77,0-5.65,0-1.87,0-3.74,0-5.6,0-1.84,0-3.68,0-5.52,0-1.8,0-3.6,0-5.4,0-1.75,0-3.5,0-5.25,0-1.69,0-3.38,0-5.07,0-1.62,0-3.23,0-4.85,0-1.53,0-3.07,0-4.6,0-1.44,0-2.88,0-4.32,0-1.34,0-2.67,0-4.01,0-1.22,0-2.44,0-3.66,0-1.09,0-2.18,0-3.28,0-.95,0-1.91,0-2.86,0-.81,0-1.61,0-2.42,0-.65,0-1.29,0-1.94,0h-1.42c-.29,0-.59,0-.88,0h-.3l1.17-1.17c.24-.24.08-1.35-.06-1.68-.82-1.92-2.6-3.26-4.35-4.46,0,0-.01,0-.02-.01-7.22-4.3-18.48-4.96-26.57-1.39-.21.09-.44-.08-.42-.31.53-5.34.51-10.04.15-15.08-.12-1.77.01-3.7.15-5.42.01-.16.15-.28.31-.28l28.88.42c.88.01,1.65-.57,1.89-1.41l1.98-7.13c.08-.29.48-.3.58-.01.64,1.88.33,4.53.7,6.83.15.93.96,1.62,1.9,1.62l36.18.04,2.59-.02c.72,0,1.35-.49,1.55-1.18l1.78-6.32c.09-.3.52-.29.59.02l1.65,7.34c.03.12.13.22.25.23,2.2.33,4.26.27,6.52.28l25.48.17,9.81.05c.96,0,1.78-.69,1.92-1.64l1.68-11.21c.05-.32.49-.35.59-.05,1.04,3.3,1.51,6.48,2.36,9.86.3,1.18.85,2.58,2.46,2.59,8.01.05,13.88-.66,21.79-.31.16,0,.29.14.29.3.02,3.16.13,5.85.67,8.78l1.43,7.74c.04.21-.14.39-.35.35-8.21-1.4-19.81.4-26.83,3.94-2.86,1.44-5.56,2.97-7.38,5.61-.45.66-.55,1.58-.11,2.14.12.15.36.15.48-.01,5.42-7.5,27.75-10.65,35.42-7.4.06.03.11.07.14.12,1.32,2.19,1.76,5.49,3.83,7.02.02.01.04.03.06.04.46.21.95.36,1.45.45,1.94.33,3.84-.41,5.41-1.51.83-.58,1.62-1.25,2.21-2.08.61-.85,1.08-1.8,1.4-2.8.27-.86.48-1.7.51-2.6.03-.82-.05-1.65-.23-2.45-.36-1.59-1.13-3.09-2.22-4.3-1.14-1.25-2.61-2.18-4.23-2.66-1.47-.44-3.02-.51-4.51-.1-.75.21-1.46.53-2.12.93-.22.13-.66.59-.89.62-.29.04-.44-.36-.5-.59-1.01-3.66-1.52-7.46-1.51-11.25,0-3.41.12-6.82.18-10.22.01-.69-.6-1.46-1.15-1.46-1.93,0-1.35,4.76-1.29,7.82,0,.17-.13.3-.29.31l-19.98.75c-.92.03-1.73-.58-1.95-1.48l-2.53-10.58c-.34-1.43-.81-5.01-2.97-4.52-1.39.31-1.5,2.14-1.72,3.27-.28,1.49-.44,3-.58,4.5-.14,1.5-.26,3.01-.48,4.5-.06.44-.65,4.47-.97,4.47,0,0-21.03-.24-21.03-.24l-15.34-.13h-2.68c-.14,0-.27-.1-.3-.24l-2.48-12.24c-.1-.48-.51-1.14-.87-1.26-.42-.13-1.54.33-1.67.79-1.22,4.48-1.48,7.76-2.99,11.87-.23.63-.83,1.05-1.5,1.06l-21.4.31-13.23-.42c-.92-.03-1.69-.7-1.84-1.61l-1.77-10.46-.93-4.29c-.03-.15-.17-.26-.33-.24-1.14.15-1.59,1.2-1.78,2.3-.73,4.3-1.46,8.45-2.41,12.73-.19.86-.94,1.48-1.81,1.51l-27.5,1.01c-.17,0-.31-.13-.31-.3l-.03-5.34c0-.46-.04-1.21-.33-1.4-.34-.22-1.3-.31-1.69-.21-.39.1-.56,1.1-.55,1.63l.32,21.02c0,.23-.24.38-.44.27-3.91-1.96-7.94-.78-10.15,2.68-1.5,2.35-1.84,5.11-.78,7.9.76,1.99,2.34,3.5,4.68,4.73.27.14.19.55-.12.57-1.75.11-3.28.12-5.07.08-.16,0-.3-.14-.3-.3l-.02-3.57c0-.09-.04-.18-.12-.24-4.37-3.38-9.83-4.58-15.42-3.78-.18.03-.35-.11-.35-.3.13-34.85,12.4-72.74,35.12-99.41,7.42-8.71,15.7-15.88,25.71-21.54,1.1-.62,2.23-1.2,3.38-1.75,2.08-.98,4.22-1.84,6.4-2.58,2.16-.74,4.37-1.36,6.6-1.88,1.08-.25,2.16-.47,3.25-.66.53-.09,1.06-.18,1.59-.26.47-.07,1.1-.04,1.48-.35.15-.12.27-.3.23-.49-.03-.15-.15-.27-.29-.33-.25-.11-.57-.11-.83-.15l-.83-.13-.96-.15c-.15-.02-.26-.15-.26-.3l.02-2.14-.45-9.98c0-.13.08-.25.2-.3,3.43-1.25,6.06-3.5,7.87-6.58.3-.52.98-.69,1.48-.35,9.15,6.1,24.1,1.98,30.53-6.32.38-.49,1.14-.44,1.46.09.52.89,1.08,1.66,1.73,2.44l4.51,5.43s.06.09.07.14l2.17,12.58c.03.19-.12.37-.32.35h-.14c-1.12-.1-2.24-.18-3.36-.27l-1.71-.13-.61-.05c-.13,0-.49.04-.54-.01s-.07-.15-.05-.23.06-.15.1-.23c.17-.3.3-.62.38-.96.05-.22.08-.44.1-.67.03-.4.03-.95-.14-1.31-.32-.66-1.15-1.33-1.9-1.4-1.33-.13-2.37.13-2.95.76-.48.51-.68,1.31-.66,1.99.02.5.17,1,.42,1.44.11.19,0,.44-.23.46-.71.07-1.43.14-2.14.2-1.23.1-2.46.2-3.69.3l-3.19.26c-.3.02-.61.05-.91.07-.58.05-1.16.11-1.74.18-.77.09-1.54.19-2.31.3-.87.12-1.73.26-2.59.4s-1.79.3-2.69.47-1.74.33-2.6.51c-.78.16-1.56.34-2.33.53-.34.08-.67.17-1.01.27-.15.04-.3.09-.45.13-.17.05-.34.17-.47,0-.04-.06-.07-.13-.09-.2-.1-.26-.22-.51-.36-.75-.13-.22-.29-.42-.43-.64-.22-.34-.5-.66-.81-.92-.58-.49-1.29-.79-2.04-.92-.67-.11-1.36-.1-2.02.03-.48.09-.99.24-1.41.51-.02.01-.04.03-.06.04-.57.39-1.01,1.03-1.04,1.74-.04.85.33,1.63.58,2.43.11.35.2.7.26,1.06.08.44.12.88.13,1.32,0,.32,0,.65.08.96.13.51.44.95.86,1.27.85.64,2.02.85,3.06.78,1.88-.14,2.8-2.01,2.94-3.97.01-.14.11-.25.24-.28,15.24-3.09,27.31-2.82,42.75-1.54,0,0,3.41.19,7.98,1.07ZM329.86,340.52c.18-.47.75-.59,1.25-.74.67-.2,1.37-.31,2.06-.31,1.37-.01,2.72.37,3.88,1.09.2.13.4.26.59.4,2.09,1.58,3.03,4.14,2.43,6.58-.59,2.45-2.51,4.58-5.63,4.92-.09,0-.52-.85-.58-.95-.19-.33-.38-.66-.56-1-.35-.66-.68-1.34-.98-2.03-.6-1.36-1.12-2.76-1.58-4.17-.19-.58-.37-1.17-.55-1.76-.08-.26-.14-.52-.2-.79-.07-.31-.21-.59-.2-.92,0-.13.02-.24.06-.34ZM230.53,220.93c-.26.38-1.57.29-1.87-.01-.49-.48-.74-1.18-.91-1.83-.1-.39-.27-.77-.36-1.16-.08-.37-.14-.75-.17-1.14-.03-.37-.03-.75.08-1.11.08-.27.31-.77.62-.85.18-.05.51.06.69.09,1.45.29,2.8,1.17,2.85,2.78.03.9-.33,2.34-.94,3.22ZM231.37,212.47c.01.06.03.11.05.17.01.04.02.08.04.12s.03.08.05.11c.01.03.03.06.04.09,0,.01,0,.02.01.03,0,0,0,.02.02.03.01.03.03.06.05.09,0,.01.01.02.02.04.45.72,1.28,1.12,2.14,1.06.05,0,.1,0,.14,0,.16-.01.3-.03.45-.04.02,0,.04,0,.06,0,.06,0,.12-.01.17-.02.06,0,.13-.02.19-.03.04,0,.08-.01.12-.02.03,0,.06-.01.09-.02.05,0,.1-.02.15-.03.03,0,.06-.02.09-.02.16-.04.32-.1.47-.16.03-.01.07-.03.1-.04.03-.01.06-.03.09-.04.13-.07.26-.15.38-.24.03-.02.05-.04.08-.06.03-.02.06-.05.09-.07.62-.52.89-1.91.84-2.94-.08-1.61-1.24-2.21-2.71-2.14-1.14.05-2.4.45-3.09,1.45-.42.61-.33,1.74-.12,2.73,0,0,0,0,0,.01ZM237.28,210.42c-.08-1.61-1.24-2.21-2.71-2.14-1.14.05-2.4.45-3.09,1.45-.42.61-.33,1.74-.12,2.73,0,0,0,0,0,.01.01.06.03.11.05.17.01.04.02.08.04.12s.03.08.05.11c.01.03.03.06.04.09,0,.02.02.04.03.06.01.03.03.06.05.09,0,.01.01.02.02.04.45.72,1.28,1.12,2.14,1.06.05,0,.1,0,.14,0,.16-.01.3-.03.45-.04.02,0,.04,0,.06,0,.06,0,.12-.01.17-.02.06,0,.13-.02.19-.03.04,0,.08-.01.12-.02.03,0,.06-.01.09-.02.05,0,.1-.02.15-.03.03,0,.06-.02.09-.02.16-.04.32-.1.47-.16.03-.01.07-.03.1-.04.03-.01.06-.03.09-.04.13-.07.26-.15.38-.24.03-.02.05-.04.08-.06.03-.02.06-.05.09-.07.62-.52.89-1.91.84-2.94ZM237.28,210.42c-.08-1.61-1.24-2.21-2.71-2.14-1.14.05-2.4.45-3.09,1.45-.42.61-.33,1.74-.12,2.73,0,0,0,0,0,.01.01.06.03.11.05.17.01.04.02.08.04.12s.03.08.05.11c.01.03.03.06.04.09,0,.02.02.04.03.06.01.03.03.06.05.09,0,.01.01.02.02.04.45.72,1.28,1.12,2.14,1.06.05,0,.1,0,.14,0,.16-.01.3-.03.45-.04.02,0,.04,0,.06,0,.06,0,.12-.01.17-.02.06,0,.13-.02.19-.03.04,0,.08-.01.12-.02.03,0,.06-.01.09-.02.05,0,.1-.02.15-.03.03,0,.06-.02.09-.02.16-.04.32-.1.47-.16.03-.01.07-.03.1-.04.03-.01.06-.03.09-.04.13-.07.26-.15.38-.24.03-.02.05-.04.08-.06.03-.02.06-.05.09-.07.62-.52.89-1.91.84-2.94Z" fill="#eae6cd"/><path d="M257.82,205.93c-1.74,0-2.86-1.07-3.01-2.35,1.26-1.45,1.75,1.18,3.94-.6.29-.24,1.07-.54,1.4-.59.38-.06,1.06.76,1.01,1.17-.16,1.25-1.77,2.37-3.34,2.37Z" fill="#eae6cd"/><path d="M237.63,203.38c1.65,1.85,2.5-.25,4.4.32.31.09.26,1.04,0,1.35-1.38,1.68-4.72,1.81-5.92-.34-.22-.39-.12-1.31.16-1.52s1.1-.09,1.35.19Z" fill="#eae6cd"/><path d="M251.8,211.38c-2.34.8-4.97.15-4.9-.52.03-.31.26-1.12.33-1.19,3.06,1.04,3.24-.8,4.87.14.32.18.12,1.42-.3,1.56Z" fill="#eae6cd"/><path d="M286.67,349.86c-2.09,1.62-5.03,1.54-7.3-.26-.95-.76-1.72-1.73-2.22-2.84-.84-1.86-.75-3.7-.58-5.67.18-2,1.2-3.9,2.81-5.11,1.18-.88,2.64-1.37,4.11-1.41,4.09-.11,6.51,3.77,6.74,7.48.2,3.21-1.01,5.83-3.56,7.81Z" fill="#eae6cd"/><path d="M266.32,424.04c-.86-1.16-.62-2.65-.49-3.92l.36-3.75.62-10.5.11-1.46c.06-.71-2.14.35-2.79-.35-.34-.37-.32-1.52.09-1.6.82-.16,2.09-.51,2.92-.72.32-3.02.8-5.95,3.04-7.91.84-.73,2.4-1.04,3.16-.7.66.29,1.16.84,1.38,1.53.11.35.14.72.11,1.08-.01.15-.01.39-.07.52-.07.17-.33.21-.49.17-.18-.05-.33-.17-.46-.3s-.24-.28-.38-.41-.31-.22-.49-.23c-.19,0-.36.1-.42.28-.06.22-.14.42-.22.64-.19.48-.37.96-.52,1.45-.31.96-.55,1.95-.75,2.94-.02.1-.04.2-.06.3l2.74-.06c.38,0,.95,1.06.83,1.42l-3.98.79-2.97,19.77c-.06.4-1.02,1.34-1.26,1.01Z" fill="#eae6cd"/><path d="M307.97,402.48c-.2-1.08-.22-2.2-.07-3.29.13-.91.37-1.85.77-2.69.28-.58.98-1.16,1.17-.2.67,3.37-.54,3.53.32,6.9l2.58-2.83c2.6-1.06,3.28,3.23,4.75,3.28,1.3.05,2.04-2.01,2.46-2.93s.76-1.79,1.17-2.67.8-1.82,1.32-2.66c.09-.14.18-.28.31-.38.12-.09.33-.19.45-.07s.09.69.11.86c.03.27.05.54.07.81.04.55.05,1.11.03,1.66-.03,1.08-.15,2.15-.37,3.2-.44,2.08-1.26,4.06-2.37,5.86-.51.83-2.55,1.15-3.23.59-1.46-1.19-2.21-2.32-3.29-4.02l-2.69,2.68c-.36.36-.97.54-1.37.22-.44-.36-.77-.84-1.05-1.34-.15-.26-.28-.53-.4-.8-.31-.71-.53-1.45-.67-2.21Z" fill="#eae6cd"/><path d="M202.01,407.49c-.15.78-.45,1.58-1.07,2.1-.28.24-.62.4-.98.47-.33.06-.92.17-1.07-.23-.05-.15-.04-.32-.03-.48l.03-.28c.06-.67.12-1.35.19-2.02.06-.63.16-1.27.2-1.9.07-1.34.16-2.69.25-4.03.1-1.43.22-2.86.35-4.28.13-1.42.27-2.84.42-4.25.15-1.42.32-2.84.49-4.26.09-.71.18-1.43.27-2.14s.13-1.45.2-2.18c.02-.2.04-.41.12-.6.17-.39.78-.69,1.2-.53.45.17.6.76.68,1.18.15.76.15,1.55.15,2.32,0,.93-.06,1.86-.1,2.79-.04.85-.08,1.71-.05,2.56.15,5.25-.23,10.42-1.24,15.76Z" fill="#eae6cd"/><path d="M225.26,391.71c0,.36,0,.72,0,1.08.01,1.68.01,3.37-.04,5.05-.06,2.13-.19,4.26-.49,6.37-.23,1.64-.51,3.48-1.39,4.92-.28.45-.65.9-1.18,1.06-.23.07-.5.09-.73.02-.69-.19-.57-1.35-.51-1.9.44-4.18.78-8.37,1.16-12.56.38-4.2.83-8.39,1.48-12.56.07-.45,1.81-.26,1.8.22,0,0-.11,8.3-.11,8.3Z" fill="#eae6cd"/><path d="M246.22,407.43c-.17.94-.56,1.99-1.45,2.47-.37.2-1.02.38-1.44.23-.51-.18-.36-1.15-.31-1.59.18-1.61.41-3.22.51-4.83s.22-3.25.35-4.88c.32-3.75.73-7.5,1.18-11.24.12-1.02.25-2.03.38-3.05.04-.32,0-1.2.22-1.41.27-.26,1.23-.33,1.53-.1.21.16.25.57.28.81.14,1.08.04,2.19-.02,3.27-.08,1.47-.22,2.96-.12,4.43.38,5.25-.16,10.51-1.12,15.89Z" fill="#eae6cd"/><path d="M286.63,391.69c0,.19,0,.39,0,.58,0,1.56.02,3.11-.02,4.67-.04,2.13-.14,4.27-.39,6.39-.21,1.77-.46,3.67-1.25,5.28-.25.52-.59,1.06-1.1,1.35-.59.33-1.55.3-1.71-.48-.05-.26-.02-.52,0-.78.03-.28.06-.56.09-.84.23-2.12.6-4.26.73-6.39.12-2.07.29-4.14.49-6.21.38-4.01.85-8.01,1.48-11.98.06-.39,1.35-.47,1.5-.21.19.31.38.86.37,1.43l-.19,7.19Z" fill="#eae6cd"/><path d="M177.33,395.57l-1.17.6c-.16.09-.51-.53-.59-.72-.4-.91-1.57-1.44-2.52-.75-2.87,2.09-4.33,5.98-2.79,9.41.43.95,2.54,1.31,3.52.73.73-.43,1.35-1.61,2.18-2.85l.49,4.78c.04.35.56.93.8,1.09.19.13.91-.24.91-.53l.29-9.31c.03-.94-.5-2.35-1.13-2.45ZM175.37,397.01c-.27.72-1.89,2.91-2.77,3.37-.38-2.57,3.27-4.68,2.77-3.37Z" fill="#eae6cd"/><path d="M332.06,401.75c1.48.8,2.96.32,4.25-.57,1.78-1.21,2.31-2.83,1.44-4.83-.62-1.44-2.6-2.1-4.38-1.48-1.91.66-3.19,2.31-3.57,3.87-.84,3.44,1.76,7.8,4.08,8.4,1.4.36,2.8.12,3.99-.91l-3.41-.6c-1.84-.32-2.58-2.33-2.41-3.88ZM332.88,399.22c.03-.09.09-.16.15-.23.39-.43,1.04-1.18,1.67-1.23.27-.02.46.13.48.41.02.34-.27.58-.53.74-.42.27-.89.47-1.38.6-.12.03-.26.05-.35-.03-.07-.07-.08-.17-.05-.26Z" fill="#eae6cd"/><path d="M355.07,399.51c-3.89,1.41-7,4.24-8.36,8.13-.15.43-.59.68-1.04.6-.61-.11-1.23-.32-1.63-.82-.69-.87-.5-2.33-.36-3.34.2-1.5.6-2.97,1.05-4.41.19-.6.39-1.21.59-1.8.25-.72.62-1.45,1.28-1.87.21-.13.46-.24.7-.16.23.07.38.31.43.54s.02.48,0,.73c-.05.57-.05,1.14.01,1.71.03.34.09.69.29.96.16.21.44.37.71.33.15-.02.28-.13.41-.21.17-.1.34-.2.51-.3.64-.37,1.29-.75,1.98-1.02.61-.24,1.29-.44,1.95-.32.7.13,1.19.63,1.48,1.26Z" fill="#eae6cd"/><path d="M296.27,396.21c-1.59.25-5.05,4.92-1.91,9.24.55.76,1.28,1.74,2.53,1.47,2.37-.5,4.6-2.25,5.08-4.69.64-3.25-2.45-6.54-5.7-6.02ZM297.82,402.13c-.27.33-.59.61-.93.86-.33.24-.74.59-1.17.54-.23-.03-.45-.15-.58-.34-.25-.35-.22-.92-.23-1.33,0-.55.15-1.13.33-1.64.22-.61.52-1.19.88-1.72.33-.48.78-1.1,1.42-.68.52.34,1.26,1.21,1.23,1.87-.05.9-.38,1.75-.95,2.44Z" fill="#eae6cd"/><path d="M158.19,405.03c.36.11.74.17,1.1.24l2.01.43,1.12.24c.23.05.47.1.65.26.12.1.24.32.18.48-.06.15-.24.16-.39.22-.45.17-.93.29-1.41.36-1.21.18-2.45.04-3.63-.26-1.13-.29-2.18-.62-2.93-1.57-.41-.52-.7-1.13-.89-1.77-.34-1.12-.39-2.32-.15-3.46.22-1.05.73-1.97,1.29-2.87,1.1-1.79,2.62-3.38,4.59-4.18.96-.39,2.57-.08,2.67,1.01,0,0-.66.27-.71.3-.27.14-.52.31-.76.49-.56.42-1.06.91-1.52,1.43-1,1.12-1.84,2.42-2.41,3.81-.43,1.08-.8,2.44-.31,3.57.22.5.61.88,1.1,1.12.12.06.25.11.38.15Z" fill="#eae6cd"/><path d="M192.38,396.79c.11-.14.31-.22.47-.15.11.04.19.15.23.26s.05.24.05.36c.04,1.02-.01,2.05-.16,3.06-.07.51-.17,1.02-.29,1.52-.11.45-.2.9-.33,1.33-.44,1.36-1.17,3.1-2.57,3.73-.4.18-.84.23-1.27.13-3.36-.76-5.26-11.44-2.69-10.71,1.52.43-.56,3.23,1.31,6.28.13.22.69.66.92.73.29.09.93-.17,1.21-.4,1.29-1.03,1.91-2.52,2.41-4.04.18-.53.38-1.06.51-1.61.04-.17.09-.35.2-.49,0,0,0,0,0,0Z" fill="#eae6cd"/><path d="M212.41,405.93c-.72.48-2.65-.13-2.68-1.22-.1-3.81.97-7.63,2.48-11.15.2-.46,1.36-.44,1.76-.22s.83,1.21.73,1.72l-2.29,10.87Z" fill="#eae6cd"/><path d="M256.59,405.78c-.1.48-1.58.36-1.91.04-2.09-2.02.61-9.86,1.83-12.54.47-.17,1.48-.05,1.84.23s.59,1.31.47,1.87l-2.23,10.39Z" fill="#eae6cd"/><path d="M234.48,405.81c-.1.46-1.55.25-1.9-.03s-.92-1.06-.87-1.68c.27-3.65,1.19-7.53,2.71-10.73.23-.39,1.52-.17,1.84.16s.6,1.3.49,1.85l-2.26,10.43Z" fill="#eae6cd"/><path d="M216.14,388.15c-.1.19-.28.35-.46.46-.31.2-.81.34-1.13.09-.03-.03-.06-.05-.09-.09-.27-.35-.33-.91-.31-1.33.01-.24.05-.43.21-.61.18-.19.41-.34.66-.43.22-.08.46-.11.69-.08.19.02.38.08.52.2.24.21.32.56.27.87-.05.32-.21.58-.35.87,0,.01-.01.03-.02.04Z" fill="#eae6cd"/><path d="M238.26,388.15c-.1.19-.28.35-.46.46-.31.2-.81.34-1.13.09-.03-.03-.06-.05-.09-.09-.27-.35-.33-.91-.31-1.33.01-.24.05-.43.21-.61.18-.19.41-.34.66-.43.22-.08.46-.11.69-.08.19.02.38.08.52.2.24.21.32.56.27.87-.05.32-.21.58-.35.87,0,.01-.01.03-.02.04Z" fill="#eae6cd"/><path d="M260.26,388.15c-.1.19-.28.35-.46.46-.31.2-.81.34-1.13.09-.03-.03-.06-.05-.09-.09-.27-.35-.33-.91-.31-1.33.01-.24.05-.43.21-.61.18-.19.41-.34.66-.43.22-.08.46-.11.69-.08.19.02.38.08.52.2.24.21.32.56.27.87-.05.32-.21.58-.35.87,0,.01-.01.03-.02.04Z" fill="#eae6cd"/><path d="M218.38,150.43c0,.18.1.35.2.5l.44.64c.2.29.43.6.78.65.28.04.57-.12.71-.37s.15-.56.04-.82c-.11-.28-.32-.5-.53-.72-.24-.24-.53-.53-.9-.48-.31.04-.73.24-.74.6Z" fill="#eae6cd"/><path d="M216.69,152.3c.05.19.17.35.3.49.21.23.46.42.74.56.3.15.68.25.98.09.32-.17.45-.61.33-.96s-.42-.61-.75-.76c-.51-.22-1.9-.45-1.6.58Z" fill="#eae6cd"/><path d="M244.26,183.54c-.15.11-.21.29-.27.47l-.23.73c-.11.33-.21.71-.04,1.01.14.25.45.38.73.34s.53-.23.67-.47c.15-.26.2-.56.24-.86.05-.34.09-.75-.17-1-.22-.22-.64-.43-.93-.22Z" fill="#eae6cd"/><path d="M241.59,183.64c-.11.16-.17.35-.2.54-.05.31-.05.62.01.93.06.33.22.69.53.82.33.15.75-.02.96-.32s.23-.7.13-1.06c-.14-.53-.81-1.77-1.44-.91Z" fill="#eae6cd"/><path d="M222.02,349.86c-2.09,1.62-5.03,1.54-7.3-.26-.95-.76-1.72-1.73-2.22-2.84-.84-1.86-.75-3.7-.58-5.67.18-2,1.2-3.9,2.81-5.11,1.18-.88,2.64-1.37,4.11-1.41,4.09-.11,6.51,3.77,6.74,7.48.2,3.21-1.01,5.83-3.56,7.81Z" fill="#eae6cd"/><path d="M295.95,181.04c-.1.19-.08.42-.05.64l.12.91c.06.41.14.87.48,1.11.28.19.67.18.95,0s.45-.51.48-.85c.03-.36-.07-.71-.18-1.05-.12-.39-.29-.85-.7-.99-.36-.12-.91-.13-1.11.24Z" fill="#eae6cd"/><path d="M293.12,182.51c-.04.23,0,.46.06.68.1.36.27.69.48.99.24.33.59.62.99.61.44-.01.8-.41.87-.84s-.12-.87-.4-1.21c-.42-.5-1.78-1.49-2.01-.24Z" fill="#eae6cd"/><path d="M239.71,112.43c-.18.13-.26.36-.33.57-.1.3-.19.6-.29.9-.13.41-.25.87-.04,1.24.17.3.55.46.89.41s.65-.28.83-.58c.19-.32.24-.69.3-1.06.06-.41.11-.92-.21-1.23-.28-.27-.78-.53-1.15-.27Z" fill="#eae6cd"/><path d="M236.42,112.55c-.14.19-.21.43-.25.66-.06.38-.06.76.01,1.14.08.41.27.84.65,1.01.41.18.93-.03,1.18-.4s.28-.86.17-1.3c-.17-.66-1-2.18-1.76-1.12Z" fill="#eae6cd"/><path d="M298.41,130.41c-.18.05-.31.21-.43.35l-.49.63c-.22.28-.46.61-.4.97.05.29.3.53.58.59s.6-.03.83-.21c.24-.19.4-.47.55-.75.17-.31.36-.69.2-1.04-.14-.3-.46-.65-.83-.55Z" fill="#eae6cd"/><path d="M295.78,129.52c-.17.11-.29.28-.39.45-.16.28-.27.59-.33.9-.06.35-.04.75.22.99.27.27.74.25,1.05.04s.48-.6.52-.98c.06-.57-.14-2.02-1.06-1.41Z" fill="#eae6cd"/><path d="M179.4,173.18c-.05.2.04.41.12.6l.35.81c.16.37.35.77.73.9.31.11.67,0,.88-.25s.29-.59.23-.91c-.06-.34-.25-.64-.43-.92-.21-.33-.48-.71-.9-.74-.36-.02-.87.11-.97.51Z" fill="#eae6cd"/><path d="M177.16,175.26c.02.22.12.43.23.62.18.3.42.57.7.79.31.24.7.43,1.08.32.4-.12.64-.58.59-1s-.33-.78-.67-1.02c-.52-.36-2.03-.93-1.92.29Z" fill="#eae6cd"/><path d="M195.32,130.4c-.04.18.03.37.11.55.1.24.21.49.31.73.14.33.32.7.66.82.28.1.6,0,.8-.23s.26-.54.21-.83c-.05-.31-.23-.58-.39-.84-.19-.3-.44-.64-.82-.67-.33-.02-.79.1-.88.46Z" fill="#eae6cd"/><path d="M193.29,132.28c.02.2.1.39.21.56.17.27.38.52.64.72.28.22.64.39.98.29.36-.11.58-.53.53-.9s-.3-.7-.61-.92c-.47-.33-1.84-.84-1.74.26Z" fill="#eae6cd"/><path d="M257.21,143.71c-.19.03-.33.16-.47.3l-.57.56c-.26.25-.53.55-.52.91,0,.29.23.56.5.66s.59.05.85-.1c.27-.16.46-.42.64-.67.21-.28.44-.64.33-1-.1-.31-.38-.7-.75-.65Z" fill="#eae6cd"/><path d="M254.72,142.49c-.18.09-.32.24-.45.4-.2.26-.35.55-.44.85-.1.34-.13.74.09,1.01.23.3.7.35,1.04.17s.55-.53.64-.9c.13-.56.12-2.02-.87-1.53Z" fill="#eae6cd"/></svg>